<svg viewBox="0 0 256 256" xmlns="http://www.w3.org/2000/svg"><path d="M170.667 117.333c17.706 0 31.893-14.293 31.893-32 0-17.706-14.187-32-31.893-32-17.707 0-32 14.294-32 32 0 17.707 14.293 32 32 32zm-85.334 0c17.707 0 31.894-14.293 31.894-32 0-17.706-14.187-32-31.894-32-17.706 0-32 14.294-32 32 0 17.707 14.294 32 32 32zm0 21.334c-24.853 0-74.666 12.48-74.666 37.333v16c0 5.867 4.8 10.667 10.666 10.667h128c5.867 0 10.667-4.8 10.667-10.667v-16c0-24.853-49.813-37.333-74.667-37.333zm85.334 0c-3.094 0-6.614.213-10.347.533.213.107.32.32.427.427 12.16 8.853 20.586 20.693 20.586 36.373v16c0 3.733-.746 7.36-1.92 10.667h55.254c5.866 0 10.666-4.8 10.666-10.667v-16c0-24.853-49.813-37.333-74.666-37.333z" fill="#FFF" fill-rule="nonzero"/></svg>