<svg viewBox="0 0 256 256" xmlns="http://www.w3.org/2000/svg"><path d="M165.333 149.333h-8.426l-2.987-2.88c12.8-14.933 19.413-35.306 15.787-56.96-5.014-29.653-29.76-53.333-59.627-56.96-45.12-5.546-83.093 32.427-77.547 77.547 3.627 29.867 27.307 54.613 56.96 59.627 21.654 3.626 42.027-2.987 56.96-15.787l2.88 2.987v8.426l45.334 45.334c4.373 4.373 11.52 4.373 15.893 0 4.373-4.374 4.373-11.52 0-15.894l-45.227-45.44zm-64 0c-26.56 0-48-21.44-48-48s21.44-48 48-48 48 21.44 48 48-21.44 48-48 48z" fill="#FFF" fill-rule="nonzero"/></svg>