<svg viewBox="0 0 256 256" xmlns="http://www.w3.org/2000/svg"><path d="M224.333 64h-192C20.6 64 11 73.6 11 85.333v85.334C11 182.4 20.6 192 32.333 192h192c11.734 0 21.334-9.6 21.334-21.333V85.333c0-11.733-9.6-21.333-21.334-21.333zM107 138.667H85.667V160c0 5.867-4.8 10.667-10.667 10.667s-10.667-4.8-10.667-10.667v-21.333H43c-5.867 0-10.667-4.8-10.667-10.667s4.8-10.667 10.667-10.667h21.333V96c0-5.867 4.8-10.667 10.667-10.667S85.667 90.133 85.667 96v21.333H107c5.867 0 10.667 4.8 10.667 10.667s-4.8 10.667-10.667 10.667zM165.667 160c-8.854 0-16-7.147-16-16s7.146-16 16-16c8.853 0 16 7.147 16 16s-7.147 16-16 16zm42.666-32c-8.853 0-16-7.147-16-16s7.147-16 16-16c8.854 0 16 7.147 16 16s-7.146 16-16 16z" fill="#FFF" fill-rule="nonzero"/></svg>