<svg viewBox="0 0 540 460" xmlns="http://www.w3.org/2000/svg"><g fill="none" fill-rule="evenodd"><g stroke-width="2" fill="#2C2541" stroke="#6441A4"><path d="M213.911 366.699l-.047.834a1985.952 1985.952 0 0 1-.651 10.799c-.547 8.725-1.14 17.45-1.759 25.593-.893 11.753-1.763 21.278-2.58 27.772-.635 5.043-1.259 8.238-1.661 8.777-.91 1.222-4.653 2.217-11.005 3.104-1.351.188-6.05.785-6.934.908-1.835.255-3.078.473-3.957.714-1.571.432-2.45 1.025-1.834 2.263.718 1.446 8.695 1.888 28.851 2.22 14.361.236 32.593.317 60.189.317 27.595 0 45.827-.081 60.188-.317 20.155-.332 28.132-.773 28.851-2.22.615-1.237-.264-1.831-1.834-2.263-.88-.241-2.123-.459-3.958-.714-.883-.123-5.582-.72-6.933-.908-6.353-.887-10.095-1.882-11.006-3.104-.401-.539-1.026-3.734-1.66-8.777-.817-6.494-1.688-16.02-2.58-27.772a1962.691 1962.691 0 0 1-1.759-25.593 2383.681 2383.681 0 0 1-.699-11.633l-.053-.945H213.962l-.051.945zM28.996 12C20.163 12 13 19.166 13 28v313.99h517V28c0-8.833-7.168-16-15.995-16H28.996z"/><path d="M13 342.973v31.58c0 8.83 7.168 15.992 15.996 15.992h485.009c8.83 0 15.995-7.166 15.995-15.992v-32.58H13v1z"/><path stroke-linejoin="round" d="M35.779 34.791h472.433V319.2H35.779z"/></g><path d="M223.594 120L216 139.396v79.268h27V233h15.188l14.343-14.336h21.938L324 189.15V120H223.594zm90.281 64.09L297 200.955h-27l-14.344 14.336v-14.336h-22.781V130.12h81v53.97zm-56.531-42.165v43.851l43.875-21.925-43.875-21.926z" fill="#FFF"/></g></svg>