<svg viewBox="0 0 330 200" xmlns="http://www.w3.org/2000/svg"><g fill="none" fill-rule="evenodd"><g stroke-width="2" fill="#2C2541" stroke="#6441A4" stroke-linejoin="round"><path d="M49.747 13c-4.973 0-9.003 4.027-9.003 8.999V178.72a3.002 3.002 0 0 0 2.996 3.003h243.93a3 3 0 0 0 2.996-3.003V21.999A8.997 8.997 0 0 0 281.663 13H49.747h0z"/><path d="M49.008 22.459h233.984v146.848H49.008zM22.703 190.258h286.594c4.03 0 9.703-2.254 9.703-4.214v-1H13v1c0 1.96 5.672 4.214 9.703 4.214z"/><path d="M166 186.453h153v-7.912H13v7.912h1z"/><path d="M149.023 184.088h34.838a5.721 5.721 0 0 0 5.536-4.299l.321-1.248h-46.554l.321 1.248a5.723 5.723 0 0 0 5.538 4.299z"/></g><path d="M136.64 61L132 72.843v48.403h16.5V130h9.281l8.766-8.754h13.406L198 103.224V61h-61.36zm55.173 39.134L181.5 110.433H165l-8.766 8.754v-8.754h-13.922V67.179h49.5v32.955zm-34.547-25.746v26.776l26.812-13.388-26.812-13.388z" fill="#FFF"/></g></svg>