<svg viewBox="0 0 85 150" xmlns="http://www.w3.org/2000/svg"><g fill="none" fill-rule="evenodd"><g transform="translate(14 14)" stroke-width="2" fill="#2C2541" stroke="#6441A4"><path d="M10.462.463H47c5.523 0 10 4.477 10 10V112c0 5.523-4.477 10-10 10H10.462c-5.522 0-10-4.477-10-10V10.463c0-5.523 4.477-10 10-10z"/><ellipse stroke-linejoin="round" cx="28.731" cy="113.117" rx="5.775" ry="5.787"/><path stroke-linejoin="round" d="M3.083 14.986h51.295v89.711H3.083zM23.456 8.346h10.55a.5.5 0 0 1 .5.5v1.926a.5.5 0 0 1-.5.5h-10.55a.5.5 0 0 1-.5-.5V8.846a.5.5 0 0 1 .5-.5z"/></g><path d="M35.195 65L34 68.09v12.626h4.25V83h2.39l2.258-2.284h3.454L51 76.015V65H35.195zm14.211 10.209l-2.656 2.687H42.5l-2.258 2.283v-2.283h-3.586V66.612h12.75v8.597zm-8.898-6.716v6.985l6.906-3.493-6.906-3.492z" fill="#FFF"/></g></svg>