<svg viewBox="0 0 1130 727" xmlns="http://www.w3.org/2000/svg"><g fill="none" fill-rule="evenodd"><g stroke-width="2" fill="#2C2541" stroke="#6441A4"><path d="M531.428 625.687l-.275.836c-.227.682-.488 1.472-.785 2.362-.846 2.546-1.794 5.382-2.821 8.436a2331.208 2331.208 0 0 1-8.763 25.596c-.42 1.203-.835 2.387-1.244 3.549-6.785 19.266-11.64 31.726-13.071 33.143-1.354 1.303-5.245 2.293-11.674 3.18-1.526.21-6.583.838-7.371.944-5.156.694-6.518 1.036-6.42 2.595.099 1.387 1.839 1.628 8.446 2.003 4.57.26 11.153.456 19.701.599 14.209.236 32.342.317 59.838.317 27.495 0 45.628-.081 59.838-.317 8.549-.143 15.132-.339 19.703-.599 6.603-.375 8.347-.616 8.449-1.991.104-1.57-1.257-1.912-6.415-2.606-.788-.106-5.841-.733-7.363-.944-6.429-.887-10.318-1.876-11.677-3.188-1.416-1.405-6.227-13.852-12.945-33.096-.409-1.174-.825-2.368-1.246-3.584a2349.214 2349.214 0 0 1-8.683-25.596 2523.74 2523.74 0 0 1-3.846-11.634l-.227-.692H531.654l-.226.687z"/><path d="M144 702h840v15H144zM13 13h1107v642H13z"/><path stroke-linejoin="round" d="M26 26h1081v616H26z"/></g><path d="M467.89 216L452 256.68v166.253h56.5V453h31.781l30.016-30.067h45.906L678 361.03V216H467.89zm188.923 134.418L621.5 385.79H565l-30.016 30.067v-30.067h-47.672V237.224h169.5v113.194zm-118.297-88.433v91.97l91.812-45.985-91.812-45.985z" fill="#FFF"/></g></svg>