<svg viewBox="0 0 256 256" xmlns="http://www.w3.org/2000/svg"><path d="M113.306 58.494c-1.043.095-1.778.593-2.205 1.494-.427.902-.83 1.352-1.21 1.352-.474.095-.711-.142-.711-.711 0-1.139.9-1.85 2.703-2.135h1.423zm12.38 1.993c-.379.094-.925-.214-1.636-.925-.711-.712-1.542-.925-2.49-.64 2.277-1.044 3.794-.95 4.553.284.285.569.143.996-.427 1.28zM75.74 121.248c-.38-.094-.664.048-.854.427-.19.38-.403.973-.64 1.78-.237.805-.498 1.446-.783 1.92-.284.474-.758 1.091-1.423 1.85-.948 1.044-.996 1.613-.142 1.708.38.094.973-.238 1.779-.996.806-.76 1.4-1.613 1.779-2.562.095-.284.19-.616.284-.996.095-.38.19-.664.285-.854a2.54 2.54 0 0 0 .213-.64 3.06 3.06 0 0 0 .071-.57v-.426l-.142-.356-.427-.285zm121.666 51.086c0-1.708-2.608-3.7-7.826-5.977.38-1.423.735-2.727 1.067-3.913.332-1.186.57-2.419.712-3.7.142-1.28.284-2.3.427-3.059.142-.759.166-1.826.07-3.202-.094-1.375-.142-2.3-.142-2.775 0-.474-.166-1.517-.498-3.13-.332-1.613-.521-2.585-.569-2.917-.047-.332-.284-1.518-.711-3.558s-.688-3.296-.783-3.77c-.949-4.554-3.178-9.44-6.688-14.658-3.51-5.217-6.925-8.775-10.246-10.672 2.277 1.897 4.98 5.834 8.111 11.81 8.254 15.37 10.815 28.556 7.685 39.56-1.044 3.795-3.416 5.787-7.115 5.977-2.941.38-4.767-.498-5.479-2.633-.711-2.134-1.09-6.095-1.138-11.882-.048-5.787-.593-10.862-1.637-15.226-.853-3.7-1.778-6.973-2.775-9.819-.996-2.846-1.92-5.004-2.774-6.474-.854-1.47-1.59-2.633-2.206-3.487-.617-.853-1.233-1.565-1.85-2.134-.617-.57-.972-.901-1.067-.996-1.328-5.882-2.799-10.768-4.411-14.657-1.613-3.89-3.012-6.546-4.198-7.969a39.461 39.461 0 0 1-3.344-4.696c-1.044-1.707-1.755-3.605-2.135-5.692-.38-1.992-.095-4.53.854-7.613s1.162-5.43.64-7.044c-.521-1.612-2.632-2.798-6.332-3.557-1.423-.285-3.534-1.138-6.332-2.561-2.799-1.423-4.483-2.182-5.052-2.277-.759-.095-1.28-1.328-1.565-3.7-.285-2.372.095-4.79 1.138-7.257 1.044-2.467 2.751-3.748 5.123-3.842 3.51-.285 5.93 1.138 7.257 4.269 1.328 3.13 1.518 5.881.57 8.253-1.044 1.802-1.139 3.06-.285 3.77.854.712 2.277.736 4.269.072 1.233-.38 1.85-2.087 1.85-5.123V50.81c-.475-2.846-1.115-5.218-1.921-7.115-.807-1.897-1.803-3.344-2.989-4.34-1.185-.996-2.3-1.708-3.344-2.134-1.043-.427-2.324-.783-3.842-1.068-10.15.76-14.372 7.115-12.664 19.068 0 1.423-.048 2.135-.143 2.135-.854-.854-2.253-1.352-4.198-1.494-1.944-.143-3.51-.119-4.695.07-1.186.19-1.922-.047-2.206-.71.095-5.408-.664-9.677-2.277-12.808-1.613-3.13-3.747-4.743-6.403-4.838-2.562-.095-4.53 1.21-5.906 3.914-1.375 2.703-2.158 5.525-2.348 8.466-.095 1.423.071 3.178.498 5.265.427 2.087 1.044 3.866 1.85 5.337.807 1.47 1.542 2.11 2.206 1.92.948-.284 1.707-.948 2.277-1.991.38-.854.047-1.234-.996-1.139-.665 0-1.4-.688-2.206-2.063-.807-1.376-1.257-2.965-1.352-4.767-.095-2.087.332-3.842 1.28-5.265.95-1.423 2.562-2.087 4.839-1.993 1.613 0 2.893.997 3.842 2.989.949 1.992 1.4 3.842 1.352 5.55-.048 1.707-.119 2.75-.214 3.13-2.087 1.423-3.557 2.799-4.41 4.127-.76 1.138-2.064 2.253-3.914 3.344-1.85 1.09-2.822 1.684-2.917 1.778-1.234 1.329-1.969 2.61-2.206 3.843-.237 1.233.119 2.087 1.067 2.561a15.614 15.614 0 0 1 3.558 2.775c1.043 1.09 1.802 1.992 2.277 2.704.474.711 1.351 1.328 2.632 1.85 1.28.521 2.965.83 5.052.924 4.459.19 9.297-.521 14.514-2.134.19-.095 1.281-.427 3.273-.996 1.992-.57 3.629-1.067 4.91-1.494 1.28-.427 2.68-1.044 4.197-1.85 1.518-.807 2.514-1.637 2.989-2.49.853-1.329 1.802-1.708 2.846-1.139.474.285.782.688.925 1.21.142.521 0 1.09-.427 1.707s-1.21 1.067-2.348 1.352c-1.898.57-4.578 1.59-8.04 3.06a603.745 603.745 0 0 0-6.475 2.774c-4.174 1.803-7.494 2.894-9.96 3.273-2.372.475-6.12.38-11.242-.284-.95-.19-1.376-.095-1.281.284.095.38.901 1.28 2.419 2.704 2.372 2.182 5.55 3.225 9.534 3.13 1.613-.094 3.32-.426 5.123-.996a41.041 41.041 0 0 0 5.123-1.992 65.136 65.136 0 0 0 4.767-2.49 323.24 323.24 0 0 1 4.269-2.42c1.28-.71 2.442-1.28 3.486-1.707 1.044-.427 1.874-.545 2.49-.355.617.19 1.02.711 1.21 1.565 0 .19-.048.403-.143.64-.094.237-.284.475-.569.712-.284.237-.569.45-.854.64-.284.19-.687.427-1.209.712-.522.284-.949.498-1.28.64-.333.142-.807.38-1.424.711-.616.332-1.067.546-1.352.64-2.656 1.329-5.858 3.416-9.605 6.262-3.747 2.846-6.901 4.886-9.463 6.119-2.561 1.233-4.885 1.28-6.972.142-1.993-1.043-4.98-4.506-8.965-10.388-2.087-2.94-3.273-3.984-3.558-3.13-.095.284-.142.759-.142 1.423 0 2.371-.712 5.051-2.135 8.04-1.423 2.988-2.822 5.62-4.197 7.897-1.376 2.277-2.372 5.028-2.989 8.254-.616 3.225-.07 6.213 1.637 8.964-2.182.57-5.147 4.839-8.894 12.807-3.747 7.97-6 14.657-6.76 20.065-.189 1.707-.26 4.98-.213 9.818.048 4.839-.213 7.637-.782 8.396-.76 2.277-2.135 2.42-4.127.427-3.036-2.941-4.743-7.4-5.123-13.376-.19-2.657 0-5.313.57-7.969.379-1.802.331-2.656-.143-2.561-.19.094-.38.332-.57.711-3.414 6.166-2.94 14.04 1.424 23.622.474 1.138 1.66 2.466 3.557 3.984 1.898 1.518 3.036 2.467 3.416 2.846 1.897 2.182 6.83 6.475 14.799 12.878 7.969 6.404 12.38 10.032 13.234 10.886 1.517 1.423 2.348 3.226 2.49 5.408.142 2.182-.522 4.221-1.992 6.118-1.47 1.898-3.629 2.989-6.475 3.273.759 1.423 2.135 3.534 4.127 6.333 1.992 2.798 3.32 5.36 3.984 7.684.664 2.324.996 5.668.996 10.032 4.364-2.277 4.696-6.64.996-13.092a12.489 12.489 0 0 0-1.494-2.276 61.859 61.859 0 0 1-1.352-1.708c-.284-.38-.38-.664-.284-.854.284-.474.9-.925 1.85-1.352.948-.426 1.897-.308 2.846.356 4.363 4.933 12.237 6.64 23.621 5.123 12.618-1.423 21.013-5.55 25.187-12.38 2.182-3.605 3.795-5.028 4.839-4.27 1.138.57 1.612 3.037 1.423 7.4-.095 2.372-1.186 6.736-3.273 13.092-.854 2.182-1.139 3.96-.854 5.336.284 1.376 1.423 2.111 3.415 2.206.285-1.803.972-5.455 2.063-10.957 1.091-5.502 1.732-9.771 1.921-12.807.19-1.992-.118-5.479-.925-10.46-.806-4.98-1.162-9.58-1.067-13.802.095-4.222 1.186-7.566 3.273-10.032 1.423-1.708 3.842-2.562 7.257-2.562.095-3.51 1.732-6.024 4.91-7.542 3.178-1.517 6.617-2.016 10.316-1.494 3.7.522 6.546 1.59 8.538 3.202zM108.041 54.652c.285-1.612.166-3.035-.355-4.269-.522-1.233-1.068-1.945-1.637-2.134-.854-.19-1.28.142-1.28.996.19.474.426.759.71.854.95 0 1.282.711.997 2.134-.285 1.897.095 2.846 1.138 2.846.285 0 .427-.142.427-.427zm59.624 28.033c-.19-.759-.498-1.304-.925-1.636-.427-.332-1.044-.57-1.85-.712-.806-.142-1.494-.403-2.063-.782a5.951 5.951 0 0 1-1.352-1.139 41.985 41.985 0 0 1-.996-1.138 87.697 87.697 0 0 0-.783-.925c-.285-.332-.474-.522-.57-.57-.094-.047-.284.024-.568.214-1.328 1.518-.996 3.581.996 6.19 1.992 2.609 3.842 4.103 5.55 4.483.853.095 1.541-.285 2.063-1.139.522-.854.688-1.802.498-2.846zm-25.33-30.31c0-1.043-.237-1.968-.711-2.774-.474-.807-.996-1.4-1.565-1.78-.57-.379-.996-.52-1.281-.426-.57 0-.949.095-1.138.285-.19.19-.19.379 0 .569.19.19.427.332.711.427 1.328.38 2.182 1.85 2.562 4.41 0 .286.379.19 1.138-.284.19-.19.284-.332.284-.427zm7.685-33.155c0-.19-.119-.427-.356-.712-.237-.284-.664-.617-1.28-.996a48.848 48.848 0 0 1-1.353-.854c-1.423-1.423-2.561-2.134-3.415-2.134-.854.095-1.4.45-1.636 1.067a3.103 3.103 0 0 0-.143 1.85c.143.617.119 1.21-.07 1.779-.096.38-.38.877-.854 1.494-.475.616-.76 1.043-.854 1.28-.095.238.047.64.427 1.21.38.285.759.285 1.138 0 .38-.285.901-.711 1.565-1.28a7.105 7.105 0 0 1 2.135-1.281c.095-.095.522-.143 1.28-.143.76 0 1.47-.095 2.135-.284.664-.19 1.09-.522 1.28-.996zm80.399 190.823c1.897 1.139 3.368 2.3 4.411 3.487 1.044 1.186 1.613 2.324 1.708 3.415a8.134 8.134 0 0 1-.356 3.202c-.332 1.043-1.067 2.087-2.206 3.13a41.333 41.333 0 0 1-3.344 2.775c-1.09.806-2.514 1.684-4.269 2.633-1.755.948-3.249 1.731-4.482 2.348a243.99 243.99 0 0 1-4.554 2.205c-1.802.854-3.083 1.47-3.842 1.85-3.605 1.803-7.66 4.459-12.166 7.969-4.506 3.51-8.088 6.546-10.744 9.107-1.613 1.518-4.838 2.443-9.676 2.775-4.838.332-9.06-.356-12.665-2.063-1.708-.854-3.107-1.969-4.198-3.344-1.09-1.376-1.873-2.586-2.348-3.63-.474-1.043-1.518-1.968-3.13-2.774-1.613-.806-3.842-1.257-6.688-1.352-4.175-.095-10.34-.142-18.5-.142-1.802 0-4.506.071-8.11.213a849.1 849.1 0 0 0-8.254.356c-4.174.095-7.945.806-11.313 2.135-3.367 1.328-5.905 2.75-7.613 4.269-1.707 1.517-3.77 2.87-6.19 4.055-2.419 1.186-4.956 1.731-7.613 1.637-2.75-.095-8.016-1.566-15.795-4.412s-14.704-4.885-20.776-6.119c-1.802-.38-4.221-.83-7.257-1.351a351.894 351.894 0 0 1-7.115-1.281 72.691 72.691 0 0 1-5.62-1.352c-2.04-.57-3.63-1.257-4.768-2.063-1.138-.807-1.945-1.732-2.419-2.775-.949-2.182-.617-5.336.996-9.463 1.613-4.127 2.467-6.712 2.562-7.755.094-1.518-.095-3.416-.57-5.692a107.284 107.284 0 0 0-1.423-6.048 17.92 17.92 0 0 1-.64-5.194c.047-1.708.545-2.988 1.494-3.842 1.328-1.139 4.032-1.803 8.111-1.992 4.08-.19 6.925-.76 8.538-1.708 2.846-1.708 4.838-3.368 5.977-4.98 1.138-1.613 1.707-4.032 1.707-7.258 1.993 6.926.475 11.953-4.553 15.084-3.036 1.897-6.973 2.609-11.811 2.135-3.226-.285-5.265.19-6.119 1.423-1.233 1.423-.996 4.126.712 8.11.19.57.569 1.424 1.138 2.562.57 1.138.972 1.992 1.21 2.561.237.57.45 1.376.64 2.42.19 1.043.237 2.087.142 3.13 0 1.423-.806 3.747-2.419 6.973-1.613 3.225-2.277 5.502-1.992 6.83.284 1.613 2.04 2.846 5.265 3.7 1.897.57 5.905 1.447 12.024 2.632 6.12 1.186 10.839 2.159 14.159 2.918 2.277.569 5.787 1.612 10.53 3.13 4.744 1.518 8.657 2.609 11.74 3.273 3.083.664 5.716.854 7.898.57 4.079-.57 7.138-1.898 9.178-3.985 2.04-2.087 3.13-4.364 3.273-6.83.142-2.467-.214-5.242-1.067-8.325-.854-3.083-1.756-5.55-2.704-7.4a102.544 102.544 0 0 0-2.846-5.194c-11.479-18.024-19.495-29.503-24.049-34.436-6.45-7.02-11.81-8.917-16.08-5.692-1.043.854-1.755.142-2.134-2.135-.285-1.517-.38-3.32-.285-5.407.095-2.751.57-5.218 1.423-7.4.854-2.181 1.992-4.41 3.415-6.688 1.423-2.276 2.467-4.269 3.131-5.976.759-1.992 2.016-5.408 3.771-10.246s3.154-8.538 4.198-11.1c1.043-2.56 2.466-5.454 4.269-8.68 1.802-3.225 3.652-5.786 5.55-7.684C85.32 97.722 91.202 88.472 92.53 83.54c-1.139-10.625-1.898-25.33-2.277-44.113-.19-8.538.949-15.724 3.415-21.558 2.467-5.835 7.494-10.791 15.084-14.87 3.7-1.993 8.633-2.989 14.799-2.989 5.028-.095 10.056.546 15.084 1.921 5.028 1.376 9.25 3.344 12.664 5.906 5.408 3.984 9.748 9.747 13.02 17.29 3.274 7.54 4.673 14.537 4.199 20.988-.475 9.013.948 19.163 4.269 30.452 3.225 10.72 9.534 21.06 18.925 31.022 5.218 5.597 9.938 13.328 14.16 23.195 4.22 9.866 7.043 18.925 8.466 27.179.759 4.648.996 8.656.712 12.024-.285 3.368-.854 6-1.708 7.898-.854 1.897-1.802 2.94-2.846 3.13-.949.19-2.063 1.091-3.344 2.704a155.855 155.855 0 0 0-3.842 5.052c-1.28 1.755-3.202 3.344-5.763 4.767-2.562 1.423-5.455 2.087-8.68 1.992-1.708-.095-3.202-.332-4.483-.712-1.28-.38-2.348-1.02-3.202-1.92-.854-.902-1.494-1.637-1.92-2.206-.428-.57-.973-1.542-1.637-2.917-.664-1.376-1.091-2.301-1.28-2.775-2.088-3.51-4.033-4.933-5.835-4.27-1.803.665-3.13 2.989-3.985 6.973-.853 3.985-.521 8.586.997 13.803 1.897 6.641 1.944 15.89.142 27.749-.949 6.166-.095 10.933 2.561 14.301 2.656 3.368 6.12 4.933 10.388 4.696 4.27-.237 8.3-1.921 12.096-5.052 5.597-4.648 9.842-7.803 12.735-9.463 2.894-1.66 7.803-3.676 14.728-6.047 5.028-1.708 8.68-3.44 10.957-5.194 2.277-1.755 3.155-3.392 2.633-4.91-.522-1.518-1.708-2.87-3.557-4.055-1.85-1.186-4.293-2.3-7.329-3.344-3.13-1.044-5.478-3.32-7.044-6.83-1.565-3.51-2.277-6.95-2.134-10.317.142-3.368.877-5.621 2.205-6.76.095 2.941.475 5.621 1.139 8.04.664 2.42 1.352 4.34 2.063 5.763.712 1.423 1.684 2.775 2.917 4.056 1.234 1.28 2.23 2.182 2.989 2.704.759.521 1.778 1.138 3.059 1.85 1.28.711 2.063 1.162 2.348 1.351z" fill="#FFF" fill-rule="nonzero"/></svg>