<svg viewBox="0 0 256 256" xmlns="http://www.w3.org/2000/svg"><path d="M228 174.571c-3.714 11.905-9.571 23.81-17.571 35.715-12.286 18.666-24.524 28-36.715 28-4.666 0-11.333-1.524-20-4.572-8.19-3.047-15.38-4.571-21.571-4.571-5.81 0-12.572 1.571-20.286 4.714-7.714 3.238-14 4.857-18.857 4.857-14.476 0-28.81-12.333-43-37-14-24.857-21-48.81-21-71.857 0-21.714 5.381-39.524 16.143-53.428 10.762-13.715 24.286-20.572 40.571-20.572 6.857 0 15.286 1.429 25.286 4.286 9.905 2.857 16.476 4.286 19.714 4.286 4.286 0 11.096-1.62 20.429-4.858 9.714-3.238 17.952-4.857 24.714-4.857 11.333 0 21.476 3.096 30.429 9.286 4.952 3.429 9.904 8.19 14.857 14.286-7.524 6.38-12.953 12-16.286 16.857-6.19 8.952-9.286 18.81-9.286 29.571 0 11.81 3.286 22.429 9.858 31.857C212 166 219.524 172 228 174.571zM174.286 7c0 5.81-1.381 12.286-4.143 19.429-2.857 7.142-7.286 13.714-13.286 19.714-5.143 5.143-10.286 8.571-15.428 10.286-3.524 1.047-8.477 1.857-14.858 2.428.286-14.19 4-26.428 11.143-36.714C144.762 11.953 156.667 4.905 173.43 1c.095.286.214.81.357 1.571.143.762.262 1.286.357 1.572 0 .38.024.857.071 1.428.048.572.072 1.048.072 1.429z" fill="#FFF" fill-rule="nonzero"/></svg>