<svg viewBox="0 0 256 256" xmlns="http://www.w3.org/2000/svg"><path d="M236.576 127.288c0 60.358-48.93 109.288-109.288 109.288S18 187.646 18 127.288 66.93 18 127.288 18s109.288 48.93 109.288 109.288zM125.892 55a1.147 1.147 0 0 0-.548.118c-9.37 5.76-23.043 13.775-26.282 23.586-1.013 3.25-.565 4.452-.012 7.07.916 3.152 2.83 7.283 4.96 10.716 1.38 2.224 5.927 8.091 6.27 8.091 6.296-3.996 13.037-8.616 18.106-13.617V74.153c0-14.218-.15-17.027-.962-18.187-.306-.582-.949-.957-1.532-.966zM96.59 83.307c-.332.007-.853 1.256-1.16 2.776-.797 3.942-4.343 17.98-5.919 23.438-1.28 4.432-1.733 9.19-.991 10.39.55.89 9.868 4.26 23.202 8.391 6.47 2.005 7.492 1.965 8.796-.325 1.985-3.488 2.294-2.883-10.163-19.894-9.833-13.428-11.137-15.699-12.474-21.705-.378-1.697-.96-3.078-1.291-3.071zm67.957 4.117c-.469-.01-1.021.018-1.6.085-3.994.46-18.438 1.423-24.117 1.611-4.61.153-9.28 1.194-10.192 2.27-.675.797-1 10.7-.81 24.657.093 6.773.449 7.732 3.03 8.264 3.93.81 3.451 1.293 15.781-15.81 9.732-13.502 11.487-15.444 16.786-18.57 1.497-.885 2.632-1.865 2.522-2.178-.068-.195-.62-.312-1.4-.329zm6.543 1.257c-3.403.04-4.409.838-6.729 2.173-2.714 1.845-6.054 4.94-8.66 8.028-1.689 2-5.86 8.136-5.755 8.462 5.747 4.754 12.222 9.74 18.545 13.015l15.989-5.198c13.522-4.393 16.144-5.403 16.996-6.534.46-.47.619-1.198.447-1.755a1.16 1.16 0 0 0-.282-.485c-8.373-7.132-20.22-17.657-30.551-17.706zM55.23 109.846c-.314 0-.556.036-.768.101-.648.111-1.203.609-1.392 1.16a1.156 1.156 0 0 0-.059.557c2.582 10.69 5.98 26.172 14.31 32.285 2.776 1.967 4.058 1.914 6.72 2.198 3.28.102 7.8-.444 11.723-1.41 2.541-.625 9.53-3.133 9.635-3.459-1.855-7.223-4.166-15.063-7.357-21.43l-15.988-5.193c-11.41-3.707-15.128-4.806-16.824-4.809zm112.712 10.922c-1.891-.008-11.032 2.67-23.422 6.884-6.413 2.182-7.214 2.815-6.922 5.434.444 3.99-.162 3.68 19.915 10.12 15.848 5.084 18.236 6.157 22.848 10.23 1.303 1.151 2.584 1.926 2.848 1.726.264-.2-.047-1.518-.692-2.928-1.673-3.657-7.056-17.1-8.99-22.443-1.57-4.337-3.998-8.45-5.303-8.985a.81.81 0 0 0-.282-.038zm-50.366 16.06c-2.336-.006-6.931 1.546-18.823 5.459-15.809 5.202-18.372 5.74-24.497 5.155-1.73-.165-3.225-.04-3.32.278-.096.318.931 1.2 2.282 1.962 3.503 1.975 15.755 9.685 20.46 12.87 3.82 2.587 8.206 4.49 9.576 4.156 1.016-.248 7.1-8.068 15.15-19.473 3.905-5.534 4.183-6.52 2.408-8.467-1.099-1.205-1.637-1.936-3.236-1.94zm15.318 4.847c-.48.014-.982.184-1.582.456-3.657 1.655-3.55.982-3.472 22.067.062 16.643-.217 19.249-2.666 24.894-.692 1.595-1.036 3.05-.764 3.24.273.189 1.432-.512 2.574-1.561 2.961-2.721 14.078-11.997 18.561-15.487 3.64-2.833 6.805-6.415 6.91-7.82.078-1.043-5.478-9.247-13.837-20.427-3.042-4.07-4.282-5.406-5.724-5.362zm26.784 4.307c-.022.004-.038.007-.047.012-2.745 6.935-5.483 14.637-6.644 21.663l9.88 13.6c8.357 11.503 10.131 13.685 11.47 14.145.59.292 1.329.218 1.806-.118.159-.111.29-.25.375-.417 4.195-10.167 10.546-24.688 7.4-34.53-1.09-3.223-2.161-3.934-4.147-5.728-2.594-2.011-6.569-4.225-10.31-5.75-2.348-.957-9.111-2.938-9.783-2.877zm-45.312 20.705c-3.853.019-7.655.23-11.175.763l-9.884 13.601c-8.357 11.503-9.885 13.864-9.91 15.28-.094.65.205 1.329.671 1.679.156.116.33.198.515.228 10.965.848 26.736 2.401 35.124-3.633 2.729-2.033 3.075-3.272 4.168-5.716 1.11-3.088 1.988-7.554 2.282-11.584.19-2.61-.04-10.029-.317-10.23-3.721-.234-7.621-.407-11.474-.388z" fill="#FFF" fill-rule="nonzero"/></svg>