<svg viewBox="0 0 256 256" xmlns="http://www.w3.org/2000/svg"><path d="M128 18.286c19.905 0 38.262 4.904 55.071 14.714 16.81 9.81 30.12 23.119 39.929 39.929 9.81 16.81 14.714 35.166 14.714 55.071S232.81 166.262 223 183.071c-9.81 16.81-23.119 30.12-39.929 39.929-16.81 9.81-35.166 14.714-55.071 14.714S89.738 232.81 72.929 223c-16.81-9.81-30.12-23.119-39.929-39.929-9.81-16.81-14.714-35.166-14.714-55.071S23.19 89.738 33 72.929C42.81 56.119 56.119 42.809 72.929 33c16.81-9.81 35.166-14.714 55.071-14.714zm39.143 74.428c-.19.096-.643.548-1.357 1.357-.715.81-1.357 1.262-1.929 1.358.19 0 .405-.239.643-.715s.476-1 .714-1.571c.238-.572.405-.905.5-1 .572-.667 1.62-1.381 3.143-2.143 1.333-.571 3.81-1.143 7.429-1.714 3.238-.762 5.666-.238 7.285 1.571-.19-.19.262-.81 1.358-1.857 1.095-1.048 1.785-1.619 2.071-1.714.286-.19 1-.405 2.143-.643 1.143-.238 1.857-.595 2.143-1.072l.285-3.142c-1.142.095-1.976-.239-2.5-1-.523-.762-.833-1.762-.928-3 0 .19-.286.571-.857 1.142 0-.666-.215-1.047-.643-1.142-.429-.096-.976-.048-1.643.142s-1.095.239-1.286.143c-.952-.285-1.666-.643-2.143-1.071-.476-.429-.857-1.214-1.142-2.357-.286-1.143-.477-1.857-.572-2.143-.19-.476-.643-1-1.357-1.572-.714-.571-1.167-1.047-1.357-1.428-.095-.19-.214-.453-.357-.786a17.457 17.457 0 0 0-.429-.928 3.015 3.015 0 0 0-.571-.786c-.238-.238-.5-.357-.786-.357-.286 0-.619.238-1 .714s-.738.952-1.071 1.429c-.334.476-.548.714-.643.714-.286-.19-.572-.262-.857-.214-.286.047-.5.095-.643.142-.143.048-.357.19-.643.429-.286.238-.524.405-.714.5-.286.19-.69.333-1.215.429-.524.095-.928.19-1.214.285 1.429-.476 1.381-1-.143-1.571-.952-.381-1.714-.524-2.286-.429.858-.38 1.215-.952 1.072-1.714-.143-.762-.548-1.429-1.214-2h.714c-.095-.381-.5-.786-1.214-1.214a17.513 17.513 0 0 0-2.5-1.215c-.953-.38-1.572-.666-1.858-.857-.761-.476-2.38-.928-4.857-1.357-2.476-.428-4.047-.452-4.714-.071-.476.571-.69 1.071-.643 1.5.048.428.238 1.095.572 2 .333.904.5 1.5.5 1.785.095.572-.167 1.19-.786 1.858-.62.666-.929 1.238-.929 1.714 0 .667.667 1.405 2 2.214 1.334.81 1.81 1.833 1.429 3.072-.286.761-1.048 1.523-2.286 2.285-1.238.762-2 1.334-2.286 1.715-.476.761-.547 1.642-.214 2.642.333 1 .833 1.786 1.5 2.358.19.19.262.38.214.571-.047.19-.214.405-.5.643a6.394 6.394 0 0 1-.785.571c-.238.143-.548.31-.929.5l-.428.286c-1.048.476-2.024.19-2.929-.857-.905-1.048-1.548-2.286-1.929-3.714-.666-2.381-1.428-3.81-2.285-4.286-2.19-.762-3.572-.714-4.143.143-.476-1.238-2.429-2.476-5.857-3.715-2.381-.857-5.143-1.047-8.286-.571.571-.095.571-.81 0-2.143-.667-1.428-1.571-2-2.714-1.714.285-.572.476-1.405.571-2.5.095-1.095.143-1.738.143-1.929a7.287 7.287 0 0 1 1.714-3.285c.096-.096.429-.5 1-1.215.572-.714 1.024-1.357 1.357-1.928.334-.572.358-.857.072-.857 3.333.38 5.714-.143 7.143-1.572.476-.476 1.024-1.286 1.643-2.428.619-1.143 1.119-1.953 1.5-2.429.857-.571 1.523-.833 2-.786.476.048 1.166.31 2.071.786.905.476 1.595.714 2.071.714 1.334.096 2.072-.428 2.215-1.571.143-1.143-.215-2.095-1.072-2.857 1.143.095 1.286-.715.429-2.429-.381-.667-.762-1.095-1.143-1.286-1.143-.38-2.429-.142-3.857.715-.762.38-.667.762.286 1.143-.096-.096-.548.404-1.358 1.5-.81 1.095-1.595 1.928-2.357 2.5-.762.571-1.524.333-2.285-.715-.096-.095-.358-.738-.786-1.928-.429-1.19-.881-1.834-1.357-1.929-.762 0-1.524.714-2.286 2.143.286-.762-.238-1.476-1.571-2.143-1.334-.667-2.477-1.047-3.429-1.143 1.81-1.143 1.429-2.428-1.143-3.857-.667-.38-1.643-.619-2.928-.714-1.286-.095-2.215.095-2.786.571-.476.667-.738 1.215-.786 1.643-.047.429.19.81.714 1.143a9.149 9.149 0 0 0 1.5.786c.477.19 1.024.38 1.643.571.62.19 1.024.333 1.215.429 1.333.952 1.714 1.619 1.142 2-.19.095-.595.262-1.214.5s-1.167.452-1.643.643c-.476.19-.762.38-.857.571-.286.381-.286 1.048 0 2s.19 1.619-.286 2c-.476-.476-.904-1.31-1.285-2.5-.381-1.19-.715-1.976-1-2.357.666.857-.524 1.143-3.572.857l-1.428-.143c-.381 0-1.143.095-2.286.286-1.143.19-2.119.238-2.929.143a2.656 2.656 0 0 1-1.928-1.143c-.381-.762-.381-1.714 0-2.857.095-.381.286-.476.571-.286-.38-.286-.904-.738-1.571-1.357-.667-.62-1.143-1.024-1.429-1.214-4.38 1.428-8.857 3.38-13.428 5.857A3.517 3.517 0 0 0 87 47.143c.476-.19 1.095-.5 1.857-.929a48.18 48.18 0 0 1 1.429-.785c3.238-1.334 5.238-1.667 6-1l.714-.715c1.333 1.524 2.286 2.715 2.857 3.572-.667-.381-2.095-.429-4.286-.143-1.904.571-2.952 1.143-3.142 1.714.666 1.143.904 2 .714 2.572-.381-.286-.929-.762-1.643-1.429s-1.405-1.19-2.071-1.571a5.703 5.703 0 0 0-2.143-.715c-1.524 0-2.572.048-3.143.143-13.905 7.62-25.095 18.19-33.572 31.714.667.667 1.239 1.048 1.715 1.143.38.096.619.524.714 1.286.095.762.214 1.286.357 1.571.143.286.69.143 1.643-.428.857.762 1 1.667.429 2.714.095-.095 2.19 1.19 6.285 3.857 1.81 1.62 2.81 2.62 3 3 .286 1.048-.19 1.905-1.428 2.572-.096-.19-.524-.62-1.286-1.286-.762-.667-1.19-.857-1.286-.571-.285.476-.262 1.357.072 2.642.333 1.286.833 1.881 1.5 1.786-.667 0-1.12.762-1.357 2.286-.239 1.524-.358 3.214-.358 5.071 0 1.857-.047 2.976-.142 3.357l.285.143c-.285 1.143-.024 2.786.786 4.929.81 2.143 1.833 3.071 3.071 2.786-1.238.285-.285 2.333 2.858 6.142.571.762.952 1.19 1.142 1.286.286.19.858.548 1.715 1.072.857.523 1.571 1 2.143 1.428a6.093 6.093 0 0 1 1.428 1.5c.381.476.857 1.548 1.429 3.214.571 1.667 1.238 2.786 2 3.358-.19.571.262 1.523 1.357 2.857 1.095 1.333 1.595 2.428 1.5 3.285-.095 0-.214.048-.357.143-.143.096-.262.143-.357.143.285.667 1.023 1.333 2.214 2 1.19.667 1.928 1.286 2.214 1.857.095.286.19.762.286 1.429.095.667.238 1.19.428 1.571s.572.476 1.143.286c.19-1.905-.952-4.857-3.428-8.857-1.429-2.381-2.238-3.762-2.429-4.143-.286-.476-.547-1.214-.786-2.214-.238-1-.452-1.69-.642-2.072.19 0 .476.072.857.215.38.142.785.31 1.214.5.429.19.786.38 1.071.571.286.19.381.333.286.429-.286.666-.19 1.5.286 2.5a11.48 11.48 0 0 0 1.714 2.642 195.93 195.93 0 0 0 2.429 2.715c.952 1.047 1.524 1.666 1.714 1.857.571.571 1.238 1.5 2 2.786.762 1.285.762 1.928 0 1.928.857 0 1.81.5 2.857 1.5 1.048 1 1.857 1.929 2.429 2.786.476.762.857 2 1.143 3.714.285 1.714.523 2.857.714 3.429.19.666.595 1.31 1.214 1.928.62.62 1.214 1.072 1.786 1.357l2.286 1.143 1.857 1c.476.19 1.357.69 2.643 1.5 1.285.81 2.31 1.357 3.071 1.643.952.381 1.714.572 2.286.572.571 0 1.262-.12 2.071-.358.81-.238 1.453-.404 1.929-.5 1.428-.19 2.81.524 4.143 2.143 1.333 1.62 2.333 2.62 3 3 3.428 1.81 6.047 2.334 7.857 1.572-.19.095-.167.452.071 1.071.238.62.62 1.357 1.143 2.214.524.858.952 1.548 1.286 2.072.333.524.595.928.785 1.214.477.572 1.334 1.286 2.572 2.143 1.238.857 2.095 1.571 2.571 2.143.572-.381.905-.81 1-1.286-.285.762.048 1.714 1 2.857.953 1.143 1.81 1.62 2.572 1.429 1.333-.286 2-1.81 2-4.572-2.953 1.429-5.286.572-7-2.571 0-.095-.12-.357-.357-.786a9.103 9.103 0 0 1-.572-1.214 9.04 9.04 0 0 1-.357-1.214c-.095-.429-.095-.786 0-1.072.095-.285.333-.428.714-.428.857 0 1.334-.167 1.429-.5.095-.334 0-.929-.286-1.786s-.476-1.476-.571-1.857c-.096-.762-.62-1.714-1.572-2.857-.952-1.143-1.524-1.857-1.714-2.143-.476.857-1.238 1.238-2.286 1.143-1.047-.096-1.81-.524-2.285-1.286 0 .095-.072.357-.215.786-.143.428-.214.738-.214.928-1.238 0-1.952-.047-2.143-.143.095-.285.214-1.119.357-2.5.143-1.38.31-2.452.5-3.214.096-.38.357-.952.786-1.714.429-.762.786-1.453 1.071-2.072a7.04 7.04 0 0 0 .572-1.785c.095-.572-.12-1.024-.643-1.357-.524-.334-1.357-.453-2.5-.358-1.81.096-3.048 1.048-3.714 2.858-.096.285-.238.785-.429 1.5-.19.714-.428 1.261-.714 1.642s-.714.715-1.286 1c-.667.286-1.81.381-3.428.286-1.62-.095-2.762-.333-3.429-.714-1.238-.762-2.31-2.143-3.214-4.143-.905-2-1.357-3.762-1.357-5.286 0-.952.119-2.214.357-3.785.238-1.572.38-2.762.428-3.572.048-.81-.214-1.976-.785-3.5.285-.19.714-.643 1.285-1.357.572-.714 1.048-1.214 1.429-1.5a2.55 2.55 0 0 1 .643-.214 1.46 1.46 0 0 1 .643 0c.19.047.38-.024.571-.215.19-.19.333-.476.429-.857-.096-.095-.286-.238-.572-.428-.286-.286-.476-.429-.571-.429.666.286 2.024.214 4.071-.214 2.048-.429 3.357-.357 3.929.214 1.428 1.048 2.476.953 3.143-.286 0-.095-.12-.547-.358-1.357-.238-.81-.261-1.452-.071-1.928.476 2.571 1.857 3 4.143 1.285.286.286 1.024.524 2.214.715 1.19.19 2.024.428 2.5.714.286.19.62.452 1 .786.381.333.643.547.786.643.143.095.38.071.714-.072.333-.143.738-.452 1.214-.928.953 1.333 1.524 2.476 1.715 3.428 1.047 3.81 1.952 5.905 2.714 6.286.667.286 1.19.38 1.571.286.381-.096.596-.548.643-1.358.048-.81.048-1.476 0-2a35.504 35.504 0 0 0-.214-1.785l-.143-1.143v-2.572l-.143-1.142c-1.428-.286-2.31-.858-2.643-1.715-.333-.857-.261-1.738.215-2.643.476-.904 1.19-1.785 2.143-2.642.095-.096.476-.262 1.142-.5a25.052 25.052 0 0 0 2.215-.929c.81-.381 1.404-.762 1.785-1.143 2-1.81 2.715-3.476 2.143-5 .667 0 1.19-.428 1.572-1.286-.096 0-.334-.142-.715-.428a10.442 10.442 0 0 0-1.071-.714c-.333-.19-.548-.286-.643-.286.857-.476.953-1.238.286-2.286.476-.286.833-.81 1.071-1.571.238-.762.596-1.238 1.072-1.429.857 1.143 1.857 1.238 3 .286.762-.762.81-1.524.143-2.286.476-.667 1.452-1.167 2.928-1.5 1.476-.333 2.357-.786 2.643-1.357.667.19 1.048.095 1.143-.286.095-.38.143-.952.143-1.714s.143-1.333.428-1.714c.381-.476 1.096-.905 2.143-1.286 1.048-.381 1.667-.619 1.857-.714l2.429-1.572c.286-.38.286-.571 0-.571 1.714.19 3.19-.333 4.428-1.572.953-1.047.667-2-.857-2.857.286-.571.143-1.024-.428-1.357-.572-.333-1.286-.595-2.143-.786.286-.095.833-.119 1.643-.071s1.31-.024 1.5-.214c1.428-.953 1.095-1.715-1-2.286-1.62-.476-3.667.095-6.143 1.714zM143.857 218c19.62-3.429 36.333-12.429 50.143-27-.286-.286-.881-.5-1.786-.643-.904-.143-1.5-.31-1.785-.5-1.715-.667-2.858-1.047-3.429-1.143a2.799 2.799 0 0 0-.357-1.857c-.333-.571-.714-1-1.143-1.286a76.397 76.397 0 0 0-1.786-1.142 75.203 75.203 0 0 1-1.571-1c-.19-.19-.524-.477-1-.858a47.97 47.97 0 0 0-1-.785c-.19-.143-.548-.357-1.072-.643-.523-.286-.928-.381-1.214-.286-.286.095-.762.143-1.428.143l-.429.143a3.948 3.948 0 0 0-.786.357 11.7 11.7 0 0 1-.785.429c-.286.142-.477.285-.572.428-.095.143-.095.262 0 .357-2-1.619-3.714-2.666-5.143-3.143-.476-.095-1-.357-1.571-.785a13.567 13.567 0 0 0-1.5-1c-.429-.238-.905-.31-1.429-.215-.524.096-1.071.429-1.643 1-.476.477-.761 1.19-.857 2.143-.095.953-.19 1.572-.285 1.857-.667-.476-.667-1.31 0-2.5.666-1.19.761-2.071.285-2.642-.285-.572-.785-.786-1.5-.643-.714.143-1.285.357-1.714.643-.429.285-.976.69-1.643 1.214s-1.095.833-1.286.928c-.19.096-.595.358-1.214.786-.619.429-1.024.786-1.214 1.072-.286.38-.572.952-.857 1.714-.286.762-.524 1.286-.715 1.571-.19-.38-.738-.69-1.642-.928-.905-.238-1.358-.5-1.358-.786.19.952.381 2.619.572 5 .19 2.381.428 4.19.714 5.429.667 2.952.095 5.238-1.714 6.857-2.572 2.38-3.953 4.285-4.143 5.714-.381 2.095.19 3.333 1.714 3.714 0 .667-.38 1.643-1.143 2.929-.761 1.286-1.095 2.31-1 3.071 0 .572.096 1.334.286 2.286z" fill="#FFF" fill-rule="nonzero"/></svg>